<svg width="18" height="21" viewBox="0 0 18 21" fill="none" xmlns="http://www.w3.org/2000/svg">
<path d="M8.77802 8.88887H8.78802V8.89887H8.77802V8.88887Z" stroke="#A6A6A6" stroke-width="2.25" stroke-linejoin="round"/>
<path d="M8.778 19.8889L14.278 14.3889C15.3657 13.3011 16.1065 11.9152 16.4066 10.4064C16.7067 8.89763 16.5526 7.33375 15.9639 5.91253C15.3752 4.49131 14.3783 3.27657 13.0992 2.42193C11.8201 1.56729 10.3163 1.11112 8.778 1.11112C7.23968 1.11112 5.73589 1.56729 4.45681 2.42193C3.17774 3.27657 2.18081 4.49131 1.5921 5.91253C1.00339 7.33375 0.849343 8.89763 1.14943 10.4064C1.44952 11.9152 2.19027 13.3011 3.278 14.3889L8.778 19.8889Z" stroke="#A6A6A6" stroke-width="1.5" stroke-linejoin="round"/>
</svg>
